<svg xmlns="http://www.w3.org/2000/svg" width="21.824" height="21.279" viewBox="0 0 21.824 21.279">
  <path id="Icon_awesome-github" data-name="Icon awesome-github" d="M7.3,17.7c0,.088-.1.158-.229.158-.145.013-.246-.057-.246-.158s.1-.158.229-.158S7.3,17.6,7.3,17.7Zm-1.368-.2c-.031.088.057.189.189.216a.206.206,0,0,0,.273-.088c.026-.088-.057-.189-.189-.229A.226.226,0,0,0,5.931,17.5Zm1.945-.075c-.128.031-.216.114-.2.216s.128.145.26.114.216-.114.2-.2S8,17.41,7.876,17.424ZM10.771.563A10.551,10.551,0,0,0,0,11.3,11.031,11.031,0,0,0,7.458,21.824c.563.1.761-.246.761-.532s-.013-1.778-.013-2.7c0,0-3.08.66-3.727-1.311,0,0-.5-1.28-1.223-1.61,0,0-1.008-.691.07-.678a2.323,2.323,0,0,1,1.7,1.135,2.326,2.326,0,0,0,3.208.92,2.446,2.446,0,0,1,.7-1.483C6.477,15.29,4,14.933,4,10.7A3.335,3.335,0,0,1,5.034,8.109a4.157,4.157,0,0,1,.114-2.988c.92-.286,3.036,1.188,3.036,1.188a10.395,10.395,0,0,1,5.526,0s2.116-1.478,3.036-1.188a4.155,4.155,0,0,1,.114,2.988A3.42,3.42,0,0,1,18,10.7c0,4.246-2.592,4.585-5.051,4.862a2.6,2.6,0,0,1,.748,2.042c0,1.483-.013,3.318-.013,3.678,0,.286.2.634.761.532A10.93,10.93,0,0,0,21.824,11.3,10.789,10.789,0,0,0,10.771.563ZM4.277,15.738c-.057.044-.044.145.031.229s.172.1.229.044.044-.145-.031-.229S4.334,15.681,4.277,15.738ZM3.8,15.382c-.031.057.013.128.1.172a.131.131,0,0,0,.189-.031c.031-.057-.013-.128-.1-.172C3.9,15.325,3.832,15.338,3.8,15.382Zm1.426,1.566c-.07.057-.044.189.057.273.1.1.229.114.286.044s.031-.189-.057-.273C5.416,16.891,5.284,16.878,5.227,16.948Zm-.5-.647c-.07.044-.07.158,0,.26s.189.145.246.1a.2.2,0,0,0,0-.273C4.91,16.288,4.8,16.244,4.726,16.3Z" transform="translate(0 -0.563)" fill="#0066fe"/>
</svg>
