<svg xmlns="http://www.w3.org/2000/svg" width="18.951" height="18.951" viewBox="0 0 18.951 18.951">
  <path id="Icon_awesome-linkedin-in" data-name="Icon awesome-linkedin-in" d="M4.242,18.951H.313V6.3H4.242ZM2.275,4.573a2.286,2.286,0,1,1,2.275-2.3A2.3,2.3,0,0,1,2.275,4.573ZM18.947,18.951h-3.92V12.792c0-1.468-.03-3.35-2.043-3.35-2.043,0-2.356,1.595-2.356,3.245v6.265H6.7V6.3h3.768V8.025h.055a4.128,4.128,0,0,1,3.717-2.043c3.976,0,4.707,2.618,4.707,6.019v6.95Z" transform="translate(0 -0.001)" fill="#0066fe"/>
</svg>
